{
  "accessors": [
    {
      "bufferView": 2,
      "componentType": 5126,
      "count": 568,
      "max": [
        0.6425134539604187,
        0.009782306849956512,
        0.43553444743156433
      ],
      "min": [
        -0.6608945727348328,
        -0.0213386919349432,
        -0.43753552436828613
      ],
      "type": "VEC3"
    },
    {
      "bufferView": 2,
      "byteOffset": 6816,
      "componentType": 5126,
      "count": 568,
      "max": [
        1.0,
        0.8448227047920227,
        0.999823272228241
      ],
      "min": [
        -1.0,
        -1.0,
        -0.9985654950141907
      ],
      "type": "VEC3"
    },
    {
      "bufferView": 1,
      "componentType": 5126,
      "count": 568,
      "max": [
        0.9543009996414185,
        0.9524099826812744
      ],
      "min": [
        0.06518399715423584,
        0.052208006381988525
      ],
      "type": "VEC2"
    },
    {
      "bufferView": 1,
      "byteOffset": 4544,
      "componentType": 5126,
      "count": 568,
      "max": [
        0.9543009996414185,
        0.9524099826812744
      ],
      "min": [
        0.06518399715423584,
        0.052208006381988525
      ],
      "type": "VEC2"
    },
    {
      "bufferView": 1,
      "byteOffset": 9088,
      "componentType": 5126,
      "count": 568,
      "max": [
        0.9543009996414185,
        0.9524099826812744
      ],
      "min": [
        0.06518399715423584,
        0.052208006381988525
      ],
      "type": "VEC2"
    },
    {
      "bufferView": 0,
      "componentType": 5125,
      "count": 2694,
      "type": "SCALAR"
    },
    {
      "bufferView": 2,
      "byteOffset": 13632,
      "componentType": 5126,
      "count": 257,
      "max": [
        0.6417434215545654,
        0.010489307343959808,
        0.4348754584789276
      ],
      "min": [
        -0.658530592918396,
        0.004602306522428989,
        -0.43670654296875
      ],
      "type": "VEC3"
    },
    {
      "bufferView": 2,
      "byteOffset": 16716,
      "componentType": 5126,
      "count": 257,
      "max": [
        0.9790143370628357,
        1.0,
        0.8986007571220398
      ],
      "min": [
        -0.6567257046699524,
        0.1558963805437088,
        -0.9630776047706604
      ],
      "type": "VEC3"
    },
    {
      "bufferView": 1,
      "byteOffset": 13632,
      "componentType": 5126,
      "count": 257,
      "max": [
        0.9959511160850525,
        0.9734616279602051
      ],
      "min": [
        0.0026152729988098145,
        0.005521059036254883
      ],
      "type": "VEC2"
    },
    {
      "bufferView": 0,
      "byteOffset": 10776,
      "componentType": 5125,
      "count": 1332,
      "type": "SCALAR"
    }
  ],
  "asset": {
    "extras": {
      "author": "wdeshaun64 (https://sketchfab.com/wdeshaun64)",
      "license": "CC-BY-4.0 (http://creativecommons.org/licenses/by/4.0/)",
      "source": "https://sketchfab.com/3d-models/painting-goodbye-bc61145200544759a6abda90a89c1366",
      "title": "painting_goodbye"
    },
    "generator": "Sketchfab-16.54.0",
    "version": "2.0"
  },
  "bufferViews": [
    {
      "buffer": 0,
      "byteLength": 16104,
      "name": "floatBufferViews",
      "target": 34963
    },
    {
      "buffer": 0,
      "byteLength": 15688,
      "byteOffset": 16104,
      "byteStride": 8,
      "name": "floatBufferViews",
      "target": 34962
    },
    {
      "buffer": 0,
      "byteLength": 19800,
      "byteOffset": 31792,
      "byteStride": 12,
      "name": "floatBufferViews",
      "target": 34962
    }
  ],
  "buffers": [
    {
      "byteLength": 51592,
      "uri": "scene.bin"
    }
  ],
  "images": [
    {
      "uri": "../_shared/SMS_Canvas_Material_baseColor.png"
    },
    {
      "uri": "../_shared/SMS_Canvas_Material_metallicRoughness.png"
    },
    {
      "uri": "textures/Material.002_baseColor.jpeg"
    }
  ],
  "materials": [
    {
      "doubleSided": true,
      "name": "SMS_Canvas_Material",
      "pbrMetallicRoughness": {
        "baseColorTexture": {
          "index": 0
        },
        "metallicFactor": 0.0,
        "metallicRoughnessTexture": {
          "index": 1
        }
      }
    },
    {
      "doubleSided": true,
      "name": "Material.002",
      "pbrMetallicRoughness": {
        "baseColorTexture": {
          "index": 2
        },
        "metallicFactor": 0.0,
        "roughnessFactor": 0.5
      }
    }
  ],
  "meshes": [
    {
      "name": "Object_0",
      "primitives": [
        {
          "attributes": {
            "NORMAL": 1,
            "POSITION": 0,
            "TEXCOORD_0": 2,
            "TEXCOORD_1": 3,
            "TEXCOORD_2": 4
          },
          "indices": 5,
          "material": 0,
          "mode": 4
        }
      ]
    },
    {
      "name": "Object_1",
      "primitives": [
        {
          "attributes": {
            "NORMAL": 7,
            "POSITION": 6,
            "TEXCOORD_0": 8
          },
          "indices": 9,
          "material": 1,
          "mode": 4
        }
      ]
    }
  ],
  "nodes": [
    {
      "children": [
        1
      ],
      "matrix": [
        1.0,
        0.0,
        0.0,
        0.0,
        0.0,
        2.220446049250313e-16,
        -1.0,
        0.0,
        0.0,
        1.0,
        2.220446049250313e-16,
        0.0,
        0.0,
        0.0,
        0.0,
        1.0
      ],
      "name": "Sketchfab_model"
    },
    {
      "children": [
        2
      ],
      "name": "root"
    },
    {
      "children": [
        3
      ],
      "matrix": [
        1.0,
        0.0,
        0.0,
        0.0,
        0.0,
        2.220446049250313e-16,
        1.0,
        0.0,
        0.0,
        -1.0,
        2.220446049250313e-16,
        0.0,
        0.0,
        0.0,
        0.0,
        1.0
      ],
      "name": "GLTF_SceneRootNode"
    },
    {
      "children": [
        4,
        5
      ],
      "matrix": [
        0.31179797649383545,
        0.0,
        0.0,
        0.0,
        0.0,
        0.0,
        0.798039436340332,
        0.0,
        0.0,
        -0.5818548798561096,
        0.0,
        0.0,
        0.0,
        0.0,
        0.0,
        1.0
      ],
      "name": "SMS_Canvas_0"
    },
    {
      "mesh": 0,
      "name": "Object_4"
    },
    {
      "mesh": 1,
      "name": "Object_5"
    }
  ],
  "samplers": [
    {
      "magFilter": 9729,
      "minFilter": 9987,
      "wrapS": 10497,
      "wrapT": 10497
    }
  ],
  "scene": 0,
  "scenes": [
    {
      "name": "Sketchfab_Scene",
      "nodes": [
        0
      ]
    }
  ],
  "textures": [
    {
      "sampler": 0,
      "source": 0
    },
    {
      "sampler": 0,
      "source": 1
    },
    {
      "sampler": 0,
      "source": 2
    }
  ]
}
