{
  "accessors": [
    {
      "bufferView": 2,
      "componentType": 5126,
      "count": 538,
      "max": [
        0.6515340805053711,
        0.016317572444677353,
        0.4359920918941498
      ],
      "min": [
        -0.6518739461898804,
        -0.015285428613424301,
        -0.4370778799057007
      ],
      "type": "VEC3"
    },
    {
      "bufferView": 2,
      "byteOffset": 6456,
      "componentType": 5126,
      "count": 538,
      "max": [
        1.0,
        0.9968495965003967,
        0.999823272228241
      ],
      "min": [
        -1.0,
        -1.0,
        -0.9985654950141907
      ],
      "type": "VEC3"
    },
    {
      "bufferView": 1,
      "componentType": 5126,
      "count": 538,
      "max": [
        0.9543009996414185,
        0.9524099826812744
      ],
      "min": [
        0.06518399715423584,
        0.052208006381988525
      ],
      "type": "VEC2"
    },
    {
      "bufferView": 1,
      "byteOffset": 4304,
      "componentType": 5126,
      "count": 538,
      "max": [
        0.9543009996414185,
        0.9524099826812744
      ],
      "min": [
        0.06518399715423584,
        0.052208006381988525
      ],
      "type": "VEC2"
    },
    {
      "bufferView": 1,
      "byteOffset": 8608,
      "componentType": 5126,
      "count": 538,
      "max": [
        0.9543009996414185,
        0.9524099826812744
      ],
      "min": [
        0.06518399715423584,
        0.052208006381988525
      ],
      "type": "VEC2"
    },
    {
      "bufferView": 0,
      "componentType": 5125,
      "count": 2466,
      "type": "SCALAR"
    },
    {
      "bufferView": 2,
      "byteOffset": 12912,
      "componentType": 5126,
      "count": 307,
      "max": [
        0.6507640480995178,
        0.016542572528123856,
        0.43533310294151306
      ],
      "min": [
        -0.6511149406433105,
        0.00012357160449028015,
        -0.4370778799057007
      ],
      "type": "VEC3"
    },
    {
      "bufferView": 2,
      "byteOffset": 16596,
      "componentType": 5126,
      "count": 307,
      "max": [
        0.9814928770065308,
        1.0,
        0.9487752318382263
      ],
      "min": [
        -0.9997580647468567,
        0.01769896224141121,
        -0.9985654950141907
      ],
      "type": "VEC3"
    },
    {
      "bufferView": 1,
      "byteOffset": 12912,
      "componentType": 5126,
      "count": 307,
      "max": [
        0.997809886932373,
        1.0240602493286133
      ],
      "min": [
        -0.013022802770137787,
        -0.0454028844833374
      ],
      "type": "VEC2"
    },
    {
      "bufferView": 0,
      "byteOffset": 9864,
      "componentType": 5125,
      "count": 1560,
      "type": "SCALAR"
    }
  ],
  "asset": {
    "extras": {
      "author": "wdeshaun64 (https://sketchfab.com/wdeshaun64)",
      "license": "CC-BY-4.0 (http://creativecommons.org/licenses/by/4.0/)",
      "source": "https://sketchfab.com/3d-models/painting-perseverance-f2bc96eb9b064e2b8edf7f62bf4f530f",
      "title": "painting_perseverance"
    },
    "generator": "Sketchfab-16.54.0",
    "version": "2.0"
  },
  "bufferViews": [
    {
      "buffer": 0,
      "byteLength": 16104,
      "name": "floatBufferViews",
      "target": 34963
    },
    {
      "buffer": 0,
      "byteLength": 15368,
      "byteOffset": 16104,
      "byteStride": 8,
      "name": "floatBufferViews",
      "target": 34962
    },
    {
      "buffer": 0,
      "byteLength": 20280,
      "byteOffset": 31472,
      "byteStride": 12,
      "name": "floatBufferViews",
      "target": 34962
    }
  ],
  "buffers": [
    {
      "byteLength": 51752,
      "uri": "scene.bin"
    }
  ],
  "images": [
    {
      "uri": "../_shared/SMS_Canvas_Material_baseColor.png"
    },
    {
      "uri": "../_shared/SMS_Canvas_Material_metallicRoughness.png"
    },
    {
      "uri": "textures/Material.001_baseColor.jpeg"
    }
  ],
  "materials": [
    {
      "doubleSided": true,
      "name": "SMS_Canvas_Material",
      "pbrMetallicRoughness": {
        "baseColorTexture": {
          "index": 0
        },
        "metallicFactor": 0.0,
        "metallicRoughnessTexture": {
          "index": 1
        }
      }
    },
    {
      "doubleSided": true,
      "name": "Material.001",
      "pbrMetallicRoughness": {
        "baseColorTexture": {
          "index": 2
        },
        "metallicFactor": 0.0,
        "roughnessFactor": 0.5
      }
    }
  ],
  "meshes": [
    {
      "name": "Object_0",
      "primitives": [
        {
          "attributes": {
            "NORMAL": 1,
            "POSITION": 0,
            "TEXCOORD_0": 2,
            "TEXCOORD_1": 3,
            "TEXCOORD_2": 4
          },
          "indices": 5,
          "material": 0,
          "mode": 4
        }
      ]
    },
    {
      "name": "Object_1",
      "primitives": [
        {
          "attributes": {
            "NORMAL": 7,
            "POSITION": 6,
            "TEXCOORD_0": 8
          },
          "indices": 9,
          "material": 1,
          "mode": 4
        }
      ]
    }
  ],
  "nodes": [
    {
      "children": [
        1
      ],
      "matrix": [
        1.0,
        0.0,
        0.0,
        0.0,
        0.0,
        2.220446049250313e-16,
        -1.0,
        0.0,
        0.0,
        1.0,
        2.220446049250313e-16,
        0.0,
        0.0,
        0.0,
        0.0,
        1.0
      ],
      "name": "Sketchfab_model"
    },
    {
      "children": [
        2
      ],
      "name": "root"
    },
    {
      "children": [
        3
      ],
      "matrix": [
        1.0,
        0.0,
        0.0,
        0.0,
        0.0,
        2.220446049250313e-16,
        1.0,
        0.0,
        0.0,
        -1.0,
        2.220446049250313e-16,
        0.0,
        0.0,
        0.0,
        0.0,
        1.0
      ],
      "name": "GLTF_SceneRootNode"
    },
    {
      "children": [
        4,
        5
      ],
      "matrix": [
        0.3897475004196167,
        0.0,
        0.0,
        0.0,
        0.0,
        0.0,
        0.798039436340332,
        0.0,
        0.0,
        -0.4654838740825653,
        0.0,
        0.0,
        0.0,
        0.0,
        0.0,
        1.0
      ],
      "name": "SMS_Canvas_0"
    },
    {
      "mesh": 0,
      "name": "Object_4"
    },
    {
      "mesh": 1,
      "name": "Object_5"
    }
  ],
  "samplers": [
    {
      "magFilter": 9729,
      "minFilter": 9987,
      "wrapS": 10497,
      "wrapT": 10497
    }
  ],
  "scene": 0,
  "scenes": [
    {
      "name": "Sketchfab_Scene",
      "nodes": [
        0
      ]
    }
  ],
  "textures": [
    {
      "sampler": 0,
      "source": 0
    },
    {
      "sampler": 0,
      "source": 1
    },
    {
      "sampler": 0,
      "source": 2
    }
  ]
}
